<svg width="80" height="80" fill="none" xmlns="http://www.w3.org/2000/svg">
  <g opacity=".7" clip-path="url(#clip0)">
    <path d="M69.846 9.44H53.117c-3.022.007-2.91 3.127 0 3.108h16.73v1.595h-16.73c-3.005-.018-2.895 3.1 0 3.109h16.73v1.63h-16.73c-3.005 0-2.895 3.116 0 3.108h16.73v1.554h-16.73c-2.943.014-2.895 3.134 0 3.145h16.73v1.556h-16.73c-2.943-.007-2.955 3.109 0 3.109h16.73v1.553h-16.73c-2.943.007-2.955 3.125 0 3.11h16.73v1.592h-16.73c-2.943-.019-2.955 3.096 0 3.108h16.73v1.55h-16.73c-2.943-.002-2.895 3.12 0 3.11h16.73v30.265c.009 4.612 10.124 4.529 10.153 0V4.817C79.971 2.71 77.473.047 73.362.038H53.118c-3.023.002-2.91 3.122 0 3.109l16.728.038v1.55H53.117c-3.017-.01-2.904 3.108 0 3.11h16.73V9.44zM51.967 63.097c-.01-5.383-8.067-11.173-17.694-7.423v-20.59L28.047 1.125C27.917.227 26.817.015 26.08 0c-.763.015-2.291.227-2.458 1.125l-6.194 33.959v20.59C7.8 51.924.002 57.75 0 63.055c.002 4.72 5.249 8.597 12.349 8.586 7.152.011 12.298-4.334 12.298-8.586V41.667h2.406v21.388c0 4.76 5.324 8.284 11.24 8.507-.1 2.61 1.13 6.334 3.446 7.81 2.715 1.734 5.947-.483 4.62-2.288-1.28-1.68-2.536-2.675-1.516-6.344 4.265-1.366 7.114-4.243 7.124-7.643zm-39.344 4.235c-1.623 0-3.18-.446-4.327-1.241-1.147-.795-1.792-1.872-1.792-2.996 0-1.124.645-2.202 1.792-2.997 1.148-.794 2.704-1.24 4.327-1.24 3.336.012 6.053 1.907 6.077 4.24-.007 1.116-.648 2.187-1.785 2.98-1.137.791-2.679 1.242-4.292 1.254zm20.628-4.235c.005-1.118.646-2.19 1.784-2.983 1.137-.794 2.68-1.245 4.295-1.257 1.615.01 3.159.461 4.297 1.255 1.137.794 1.777 1.867 1.78 2.985-.003 1.118-.643 2.19-1.78 2.983-1.139.794-2.683 1.243-4.297 1.252-1.614-.01-3.158-.46-4.296-1.253-1.137-.793-1.779-1.864-1.783-2.982z" fill="#C4CFD4"/>
  </g>
</svg>
