<svg width="80" height="80" fill="none" xmlns="http://www.w3.org/2000/svg">
  <g opacity=".7" clip-path="url(#clip0)" fill="#C4CFD4">
    <path d="M35.547 41.533h-.117V37.21a1.97 1.97 0 00-1.965-1.97h-1.61V12.491v-.014c.018-.724-.087-1.508-.323-2.338-.586-2.062-1.922-4.211-3.762-6.05C25.21 1.527 22.137 0 19.55 0h-.004c-1.364 0-2.522.439-3.349 1.266-.83.828-1.268 1.988-1.268 3.355l.003.197.017 30.422h-1.626a1.969 1.969 0 00-1.965 1.969v4.325h-.121a4.324 4.324 0 00-4.317 4.32 4.323 4.323 0 003.145 4.154v27.974c0 1.113.82 2.018 1.827 2.018h23.004c1.005 0 1.823-.905 1.823-2.018V50.008a4.324 4.324 0 003.149-4.154 4.326 4.326 0 00-4.321-4.32zM17.853 2.925l.002-.002c.383-.384.953-.579 1.692-.58h.002c1.921 0 4.497 1.336 6.564 3.403 3.265 3.265 4.107 6.973 2.821 8.259-.625.626-1.801.752-3.226.347-1.683-.479-3.47-1.604-5.033-3.169-2.067-2.065-3.403-4.64-3.402-6.562 0-.741.195-1.312.58-1.696zm11.66 13.512V35.24h-12.22l-.014-24.425c.508.697 1.09 1.378 1.738 2.025 1.84 1.842 3.988 3.18 6.05 3.766a7.99 7.99 0 002.178.327c.843 0 1.607-.167 2.267-.495zM13.701 37.584h19.384v3.95H13.702v-3.95zm-1.293 40.073v-6.479h21.966v6.48H12.409zm23.138-29.83H25.56a1.172 1.172 0 100 2.345h8.815v18.663H12.409V50.17h8.35a1.172 1.172 0 100-2.344h-9.522a1.975 1.975 0 010-3.95H35.547a1.98 1.98 0 011.977 1.977 1.977 1.977 0 01-1.977 1.973zM65.016 29.828H54.493c-4.448 0-8.067 3.617-8.067 8.063v40.153c0 1.079.877 1.956 1.956 1.956h22.746a1.956 1.956 0 001.952-1.956V67.237a1.172 1.172 0 10-2.344 0v10.42H48.77V54.094h21.966v7.73a1.172 1.172 0 102.344 0V37.891c0-4.446-3.617-8.063-8.064-8.063zM54.494 32.17h10.523a5.726 5.726 0 015.72 5.72v6.876H48.77V37.89a5.728 5.728 0 015.724-5.72zm-5.724 19.58v-4.64h21.966v4.64H48.77z"/>
  </g>
  <defs>
    <clipPath id="clip0">
      <path fill="#fff" d="M0 0h80v80H0z"/>
    </clipPath>
  </defs>
</svg>