<svg width="70" height="80" fill="none" xmlns="http://www.w3.org/2000/svg">
  <path d="M48.17 22.256a4.329 4.329 0 000-6.132l-6.243-6.248.01.009c-1.653-1.654-4.493-4.496-8.512-8.51-1.894-1.85-4.957-1.832-6.833.045L-8.58 36.593a4.812 4.812 0 000 6.829l35.163 35.163a4.833 4.833 0 006.833 0l14.746-14.748a4.33 4.33 0 000-6.132 4.348 4.348 0 00-6.136 0L30.86 68.896a1.153 1.153 0 01-1.652 0L1.119 40.812a1.155 1.155 0 010-1.654L29.2 11.074c.036-.036.08-.063.116-.099a1.141 1.141 0 011.536.099l11.183 11.182a4.332 4.332 0 006.136 0zm-27.482 17.93a9.492 9.492 0 009.495 9.493 9.495 9.495 0 009.494-9.493 9.492 9.492 0 00-9.494-9.492 9.495 9.495 0 00-9.495 9.492zm47.89-3.45L57.603 25.804a4.34 4.34 0 00-6.136.01 4.326 4.326 0 000 6.13l7.413 7.41a1.155 1.155 0 010 1.654l-7.306 7.303a4.327 4.327 0 000 6.132 4.348 4.348 0 006.136 0l10.879-10.878a4.822 4.822 0 00-.01-6.83z" fill="#C4CFD4"/>
</svg>