<svg width="80" height="80" fill="none" xmlns="http://www.w3.org/2000/svg">
  <g opacity=".7" clip-path="url(#clip0)" fill="#C4CFD4">
    <path d="M71.275 58.382l-30.687-19.62a1.091 1.091 0 00-1.178 0L8.723 58.385a5.392 5.392 0 002.919 9.926h56.717a5.391 5.391 0 002.916-9.926v-.004zm-2.916 7.743H11.642a3.204 3.204 0 01-1.738-5.896L40 40.98l30.094 19.242a3.204 3.204 0 01-1.735 5.899v.003z"/>
    <path d="M74.663 53.131L44.22 33.663v-3.754A12.599 12.599 0 0040.86 5.47a12.598 12.598 0 00-13.457 12.567 1.093 1.093 0 001.094 1.094h6.25a1.093 1.093 0 001.093-1.094 4.16 4.16 0 114.16 4.16h-3.125a1.091 1.091 0 00-1.093 1.095v10.37L5.337 53.13a11.641 11.641 0 006.305 21.431h56.717a11.642 11.642 0 006.304-21.43zM68.36 72.375H11.642a9.454 9.454 0 01-5.126-17.4l30.948-19.792a1.094 1.094 0 00.505-.922v-9.875H40a6.348 6.348 0 10-6.25-7.442h-4.1A10.412 10.412 0 1142.828 28.06a1.093 1.093 0 00-.797 1.052v5.15a1.096 1.096 0 00.505.922L73.48 54.97a9.455 9.455 0 01-5.12 17.403v.003z"/>
  </g>
  <defs>
    <clipPath id="clip0">
      <path fill="#fff" d="M0 0h80v80H0z"/>
    </clipPath>
  </defs>
</svg>