<svg width="80" height="80" fill="none" xmlns="http://www.w3.org/2000/svg">
  <g opacity=".7" fill="#C4CFD4">
    <path d="M60 0H20a9.344 9.344 0 00-9.334 9.333v61.334A9.344 9.344 0 0020 80h40a9.344 9.344 0 009.333-9.333V9.333A9.344 9.344 0 0060 0zM20 2.667h40A6.679 6.679 0 0166.533 8H13.466A6.679 6.679 0 0120 2.667zm46.666 68A6.675 6.675 0 0160 77.333H20a6.675 6.675 0 01-6.667-6.666v-4h53.334v4zm0-6.667H13.334V10.667h53.334V64z"/>
    <path d="M42.667 68h-5.334c-.736 0-1.333.597-1.333 1.333v5.334c0 .736.597 1.333 1.333 1.333h5.334c.736 0 1.333-.597 1.333-1.333v-5.334c0-.736-.597-1.333-1.333-1.333zm-1.334 5.333h-2.666v-2.666h2.666v2.666z"/>
  </g>
</svg>