<svg width="81" height="80" fill="none" xmlns="http://www.w3.org/2000/svg">
  <g opacity=".7" fill="#C4CFD4">
    <path d="M43.031 12.5h5.063c.335 0 .657-.132.895-.366a1.242 1.242 0 000-1.768 1.274 1.274 0 00-.895-.366H43.03c-.335 0-.657.132-.895.366a1.242 1.242 0 000 1.768c.238.234.56.366.895.366z"/>
    <path d="M22.781 55h48.094c.29 0 .573-.099.799-.28.225-.181.38-.434.44-.715l6.328-30a1.236 1.236 0 00-.257-1.044 1.262 1.262 0 00-.982-.461h-3.015l-2.631-5.198a1.235 1.235 0 00.584-1.052v-2.5a3.73 3.73 0 00-1.114-2.65 3.825 3.825 0 00-2.683-1.1h-2.531a3.825 3.825 0 00-2.684 1.1 3.73 3.73 0 00-1.113 2.65v2.5a1.236 1.236 0 00.583 1.052L59.968 22.5h-.484V6.25c0-.332-.133-.65-.37-.884A1.274 1.274 0 0058.219 5h-20.25c-.336 0-.658.132-.895.366-.237.235-.37.552-.37.884v5.736a5.547 5.547 0 00-5.43.831 7.112 7.112 0 00-3.243-2.386 7.202 7.202 0 00-4.036-.255 7.141 7.141 0 00-3.525 1.957 7.002 7.002 0 00-1.877 3.538 5.46 5.46 0 00-3.27 1.312l-1.435-6.02a1.249 1.249 0 00-.446-.693c-.224-.175-.5-.27-.786-.27h-8.86c-.335 0-.657.132-.894.366a1.242 1.242 0 000 1.768c.237.234.56.366.895.366h7.857l9.586 40.238a5.069 5.069 0 00-2.546 1.815 4.966 4.966 0 00-.975 2.947V60a4.975 4.975 0 001.484 3.534A5.1 5.1 0 0022.781 65h.004a6.184 6.184 0 00-.602 6.547 6.28 6.28 0 002.333 2.523 6.387 6.387 0 006.656 0 6.28 6.28 0 002.333-2.523A6.184 6.184 0 0032.903 65h25.32a6.184 6.184 0 00-.602 6.547 6.28 6.28 0 002.332 2.523 6.387 6.387 0 006.656 0 6.28 6.28 0 002.334-2.523A6.184 6.184 0 0068.34 65h5.066c.336 0 .658-.132.895-.366a1.242 1.242 0 000-1.768 1.274 1.274 0 00-.895-.366H22.781a2.55 2.55 0 01-1.789-.733A2.487 2.487 0 0120.25 60v-2.5c0-.663.268-1.298.742-1.767a2.55 2.55 0 011.79-.733zm8.395-15h8.743l.21 5h-8.32l-.633-5zm-1.918 5h-3.774l3.281-3.89.493 3.89zm10.344-12.5l.211 5H36.51l-.844-5h3.936zM36.537 30l2.786-4.128.174 4.128h-2.96zm26.893 2.5l-.633 5h-7.485l5.906-5h2.212zm2.491.467L71.43 37.5h-6.081l.573-4.533zM48.094 40l-5.47 4.052L42.451 40h5.642zm3.074.848L50.993 45h-5.43l5.605-4.152zm2.57-.848h3.105l-.422 5h-2.895l.211-5zm5.645 0h3.097l-.632 5H58.96l.422-5zm-5.45-4.625l.12-2.875h3.276l-3.396 2.875zM51.309 37.5H47.74l-1.687-5h5.467l-.21 5zm-7.924-5l1.687 5h-2.725l-.211-5h1.249zm-9.213 15v5h-1.414l-.633-5h2.047zm2.531 0h3.532l.211 5h-3.743v-5zm6.066 0h8.119l-.211 5H42.98l-.211-5zm10.652 0h2.79l-.422 5h-2.58l.212-5zm5.33 0h2.78l-.633 5h-2.57l.422-5zm5.312.153l3.926 4.847h-4.54l.614-4.847zM64.398 45l.633-5h7.452l-1.054 5h-7.03zm4.91-12.5h4.757l-.703 3.336-4.053-3.336zM62.017 30v-5h2.363l-.633 5h-1.73zm-2.532 0H54.16l.211-5h5.114v5zm-7.858 0H42.03l-.212-5h10.018l-.211 5zM36.87 25l-3.375 5H29.91l-.633-5h7.593zm-3.77 7.5l.843 5H30.86l-.632-5H33.1zm-4.791 5H20.25v.167L19.019 32.5h8.657l.633 5zM26.407 40l-4.218 5h-.192l-1.191-5h5.601zm3.167 7.5l.633 5h-6.423l-1.191-5h6.981zm40.557 3.644l-2.95-3.644h3.72l-.77 3.644zM74.593 30h-8.296l.633-5h8.717l-1.054 5zM64.547 13.75c0-.331.134-.65.371-.883.237-.235.559-.367.894-.367h2.532c.335 0 .657.132.894.367.237.234.371.552.371.883V15h-5.062v-1.25zm.782 3.75h3.498l2.532 5h-8.561l2.531-5zm-8.376 5h-2.531v-15h2.531v15zm-5.062-15v15H39.234v-15h12.657zM16.056 20.061c.106-.098.194-.213.26-.341a2.863 2.863 0 011.074-1.144 2.912 2.912 0 011.521-.414c.197 0 .393.019.586.057a1.28 1.28 0 001.057-.265 1.252 1.252 0 00.457-.978l-.002-.064c0-2.433 2.044-4.412 4.557-4.412a4.602 4.602 0 012.612.8 4.514 4.514 0 011.68 2.13c.083.227.231.424.425.57a1.275 1.275 0 001.876-.399c.216-.382.517-.71.88-.961a2.95 2.95 0 012.525-.399c.424.127.813.346 1.14.643V22.5H16.636l-.581-2.439zM26.726 25l.633 5h-8.936l-1.19-5h9.494zm4.915 43.75c0 .742-.223 1.467-.64 2.083a3.787 3.787 0 01-1.704 1.382 3.84 3.84 0 01-2.194.213 3.81 3.81 0 01-1.944-1.026 3.736 3.736 0 01-1.04-1.92 3.707 3.707 0 01.217-2.167 3.76 3.76 0 011.398-1.683 3.83 3.83 0 014.793.468 3.731 3.731 0 011.114 2.65zm35.437 0c0 .742-.223 1.467-.64 2.083a3.787 3.787 0 01-1.704 1.382 3.84 3.84 0 01-2.193.213 3.81 3.81 0 01-1.944-1.026 3.736 3.736 0 01-1.04-1.92 3.707 3.707 0 01.216-2.167 3.76 3.76 0 011.399-1.683 3.83 3.83 0 014.793.468 3.731 3.731 0 011.113 2.65z"/>
    <path d="M27.844 70c.699 0 1.265-.56 1.265-1.25s-.566-1.25-1.265-1.25c-.7 0-1.266.56-1.266 1.25S27.145 70 27.844 70zM63.281 70c.7 0 1.266-.56 1.266-1.25s-.567-1.25-1.266-1.25c-.699 0-1.265.56-1.265 1.25S62.582 70 63.28 70z"/>
  </g>
</svg>