<svg width="80" height="80" fill="none" xmlns="http://www.w3.org/2000/svg">
  <path fill-rule="evenodd" clip-rule="evenodd" d="M37.822.84a3.103 3.103 0 01.999-.622 3.284 3.284 0 012.358 0c.374.144.714.355 1 .621L79.1 35.123c.286.266.512.581.667.928.154.347.233.72.232 1.095v39.997c0 .758-.324 1.484-.901 2.02a3.201 3.201 0 01-2.176.837H49.231a3.201 3.201 0 01-2.176-.837 2.757 2.757 0 01-.901-2.02V54.287H33.846v22.856c0 .758-.324 1.484-.901 2.02a3.201 3.201 0 01-2.176.837H3.077A3.201 3.201 0 01.9 79.163a2.757 2.757 0 01-.9-2.02V37.146c0-.376.078-.748.232-1.095a2.86 2.86 0 01.666-.928L37.822.839zM6.154 38.327v35.958h21.538V51.43c0-.757.325-1.484.901-2.02a3.201 3.201 0 012.176-.837h18.462c.816 0 1.598.301 2.175.837.578.536.902 1.263.902 2.02v22.856h21.538V38.328L40 6.902 6.154 38.328z" fill="#C4CFD4"/>
  <path fill-rule="evenodd" clip-rule="evenodd" d="M70.77 8.576v19.998L58.46 17.147V8.576c0-.758.325-1.485.902-2.02a3.201 3.201 0 012.175-.837h6.154c.816 0 1.599.3 2.176.837.577.535.901 1.262.901 2.02z" fill="#C4CFD4"/>
</svg>