<svg width="80" height="80" fill="none" xmlns="http://www.w3.org/2000/svg">
  <g opacity=".7" clip-path="url(#clip0)">
    <path d="M30.844 14.974l-5.328-5.318 5.704-6.261h22.514l6.866 7.543h11.895c4.128 0 7.505 3.395 7.505 7.544v45.261c0 .19-.037.378-.075.604l-7.43-7.506v-38.36H57.298l-6.867-7.543h-15.91l-3.677 4.036zM74.334 80l-8.706-8.713h-53.17c-4.128 0-7.505-3.395-7.505-7.544V18.482c0-2.226 1.013-4.225 2.552-5.62L0 5.318 5.328 0l74.297 74.682L74.334 80zM31.933 37.416c-.413 1.17-.713 2.377-.713 3.697 0 6.26 5.028 11.315 11.257 11.315 1.313 0 2.514-.302 3.677-.716L31.932 37.416zm26.19 26.328l-6.303-6.337a18.276 18.276 0 01-9.343 2.565c-10.357 0-18.762-8.45-18.762-18.86 0-3.432.938-6.638 2.551-9.391l-13.17-13.24h-.638v45.262h45.666zm-5.102-26.479l7.767 7.808c.3-1.282.45-2.602.45-3.96 0-10.41-8.405-18.86-18.761-18.86-1.351 0-2.665.151-3.978.453l7.767 7.808a11.214 11.214 0 016.755 6.751z" fill="#C4CFD4"/>
  </g>
</svg>