<svg width="29" height="27" fill="none" xmlns="http://www.w3.org/2000/svg">
  <path d="M18.281 20.434h-.468v-.888h.468c.517 0 .937-.398.937-.888s-.42-.888-.937-.888h-.468v-.889h.468c1.034 0 1.875.797 1.875 1.777 0 .979-.841 1.776-1.875 1.776z" fill="#D5CEC2"/>
  <path d="M5.497 23.344l1.066-2.02h-3.75l1.065 2.02h1.619zM15.81 23.344l1.065-2.02h-3.75l1.066 2.02h1.618z" fill="#A8B0BC"/>
  <path d="M1.875 19.547h15.938v1.776H1.874v-1.776z" fill="#758190"/>
  <path d="M1.875 19.547h15.938v.888H1.874v-.888z" fill="#8892A0"/>
  <path d="M19.542 7.841l-.92-.174 1.075-5.09a.463.463 0 01.46-.358h3.28v.889h-2.896l-1 4.733z" fill="#E7E4DD"/>
  <path d="M6.094 7.109a4.274 4.274 0 01-.938-2.666C5.156 1.989 7.255 0 9.844 0c2.589 0 4.687 1.989 4.687 4.443 0 1-.349 1.924-.938 2.666" fill="#F2C351"/>
  <path d="M10.313 3.997V2.22c.516 0 .936.398.936.889h.938c0-.98-.84-1.777-1.874-1.777V.887h-.938v.445c-1.034 0-1.875.797-1.875 1.777 0 .98.84 1.776 1.875 1.776v1.777c-.517 0-.938-.398-.938-.887H7.5c0 .979.84 1.776 1.875 1.776h.938c1.033 0 1.874-.797 1.874-1.777 0-.98-.84-1.777-1.874-1.777zm-.938 0c-.517 0-.938-.398-.938-.888s.421-.889.938-.889v1.777zm.938 2.665l-.001-1.777c.517 0 .938.4.938.89s-.42.887-.938.887z" fill="#F7D881"/>
  <path d="M2.344 8.885l1.406 7.108h12.188l1.406-7.108h-15z" fill="#E7E4DD"/>
  <path d="M2.344 8.885l1.406 7.108h12.188l1.406-7.108h-15z" fill="#E7E4DD"/>
  <path d="M0 7.108L1.875 17.77h15.938l1.875-10.662H0zm15 4.887v-.89h1.904l-.175.89H15zm1.553.888l-.176.889H15v-.89h1.553zm-13.418 0h1.553v.889H3.31l-.175-.89zm-.176-.888l-.176-.89h1.905v.89h-1.73zm9.697 0v-.89h1.406v.89h-1.406zm1.406.888v.889h-1.406v-.89h1.406zm-3.75-.888v-.89h1.407v.89h-1.407zm1.407.888v.889h-1.407v-.89h1.407zm-1.407-2.665V8.884h1.407v1.332h-1.407zm-2.343 1.777v-.89h1.406v.89H7.969zm1.406.888v.889H7.969v-.89h1.406zm-1.406-2.665V8.884h1.406v1.332H7.969zm-2.344 1.777v-.89H7.03v.89H5.625zm1.406.888v.889H5.625v-.89H7.03zm-1.406-2.665V8.884H7.03v1.332H5.625zM7.03 14.66v1.333H5.625V14.66H7.03zm.938 0h1.406v1.333H7.969V14.66zm2.343 0h1.407v1.333h-1.407V14.66zm2.344 0h1.406v1.333h-1.406V14.66zm0-4.443V8.885h1.406v1.332h-1.406zM4.687 8.885v1.332h-2.08l-.263-1.332h2.344zm-1.2 5.775h1.2v1.333H3.75l-.264-1.333zM15 15.993V14.66h1.201l-.264 1.333H15zm2.08-5.776H15V8.885h2.344l-.264 1.332z" fill="#8892A0"/>
  <path d="M27.188 3.55h-3.282a.457.457 0 01-.468-.443v-.888c0-.245.21-.444.468-.444h3.282c.518 0 .937.398.937.888s-.42.888-.938.888z" fill="#758190"/>
  <path d="M4.688 26.654c1.035 0 1.875-.795 1.875-1.776S5.723 23.1 4.688 23.1c-1.036 0-1.875.796-1.875 1.777 0 .98.839 1.776 1.874 1.776zM15 26.654c1.035 0 1.875-.795 1.875-1.776S16.035 23.1 15 23.1c-1.036 0-1.875.796-1.875 1.777 0 .98.84 1.776 1.875 1.776z" fill="#606060"/>
  <path d="M4.688 25.764c-.518 0-.938-.397-.938-.887s.42-.887.938-.887c.517 0 .937.397.937.887s-.42.887-.938.887zM15 25.764c-.517 0-.938-.397-.938-.887s.421-.887.938-.887c.517 0 .938.397.938.887-.001.49-.421.887-.938.887z" fill="#D5CEC2"/>
  <path d="M27.188 1.775h-3.282a.457.457 0 00-.468.444v.888c0 .245.21.444.468.444h2.475c.539-.45.94-1.042 1.136-1.716a.973.973 0 00-.33-.06z" fill="#8892A0"/>
</svg>