<svg width="30" height="30" fill="none" xmlns="http://www.w3.org/2000/svg">
  <g clip-path="url(#clip0)">
    <circle cx="11.77" cy="11.77" r="11.77" fill="#2B363B"/>
    <path d="M13.471 22.712a.44.44 0 00-.44.44v3.365a.44.44 0 10.88 0V23.15a.44.44 0 00-.44-.44zM9.915 22.712a.44.44 0 00-.44.44v3.365a.44.44 0 10.879 0V23.15a.44.44 0 00-.44-.44zM11.693 22.923a.44.44 0 00-.44.44v5.282a.44.44 0 10.88 0v-5.282a.44.44 0 00-.44-.44zM23.259 10.791h3.365a.44.44 0 100-.878H23.26a.44.44 0 100 .878zM26.624 13.47H23.26a.44.44 0 100 .878h3.365a.44.44 0 100-.879zM28.782 11.69h-5.388a.44.44 0 100 .88h5.388a.44.44 0 100-.88z" fill="#45D987"/>
    <path d="M27.334 29.894l-6.061-6.06a.362.362 0 010-.513l2.048-2.049a.362.362 0 01.512 0l6.062 6.061a.362.362 0 010 .512l-2.05 2.049a.362.362 0 01-.511 0z" fill="#F78E36"/>
    <path d="M23.321 21.272l-1.28 1.28a.362.362 0 01.512 0l6.06 6.061a.362.362 0 010 .513l1.281-1.28a.362.362 0 000-.513l-6.06-6.06a.362.362 0 00-.513 0z" fill="#F86F1B"/>
    <path d="M18.861 20.146l1.28-1.28 2.791 2.79-1.28 1.28-2.79-2.79z" fill="#4380A0"/>
    <path d="M22.398 24.964l2.561-2.56 1.28 1.28-2.56 2.56-1.28-1.28z" fill="#7BE492"/>
    <path d="M23.679 23.684l1.28-1.28 1.28 1.28-1.28 1.28-1.28-1.28z" fill="#45D987"/>
    <path d="M11.77 0c-.304 0-.606.012-.905.034 6.078.463 10.865 5.54 10.865 11.737 0 6.196-4.787 11.274-10.865 11.736.3.023.601.034.906.034 6.5 0 11.77-5.27 11.77-11.77C23.541 5.27 18.271 0 11.771 0z" fill="#3A7190"/>
    <path d="M11.77 1.81c-.305 0-.606.015-.905.042 5.07.46 9.055 4.732 9.055 9.919 0 5.186-3.986 9.459-9.055 9.918.299.027.6.041.906.041 5.491 0 9.96-4.468 9.96-9.96 0-5.491-4.468-9.96-9.96-9.96z" fill="#E4E4E4"/>
    <path d="M10.111 11.982H6.489V6.67c0-.133.108-.241.242-.241H9.87c.133 0 .241.108.241.241v5.312z" fill="#C5C5C5"/>
    <path d="M8.3 6.429v5.553h1.811V6.67a.241.241 0 00-.241-.241H8.3z" fill="#C4CFD4"/>
    <path d="M17.355 11.982h-3.622V8.964c0-.134.108-.242.241-.242h3.14c.133 0 .24.108.24.242v3.018z" fill="#7A7A7A"/>
    <path d="M15.543 8.722v3.26h1.811V8.964a.241.241 0 00-.241-.242h-1.57z" fill="#182A30"/>
    <path d="M13.733 11.982H10.11V4.376c0-.133.108-.241.241-.241h3.14c.132 0 .24.108.24.241v7.606z" fill="#2B363B"/>
    <path d="M11.922 4.135v7.847h1.81V4.376a.241.241 0 00-.24-.241h-1.57z" fill="#C4CFD4"/>
    <path d="M18.413 11.543H5.431a.44.44 0 100 .878h12.982a.44.44 0 100-.878zM16.992 16.284h-2.14l-.972-2.483a.44.44 0 00-.821.007l-1.336 3.602-.937-2.655a.44.44 0 00-.798-.068l-.892 1.597H6.962a.44.44 0 100 .879h2.392a.44.44 0 00.384-.225l.543-.973 1.017 2.883a.44.44 0 00.411.293h.004a.44.44 0 00.412-.286l1.357-3.66.66 1.689a.44.44 0 00.41.279h2.44a.44.44 0 000-.879z" fill="#C4CFD4"/>
  </g>
  <defs>
    <clipPath id="clip0">
      <path fill="#fff" d="M0 0h30v30H0z"/>
    </clipPath>
  </defs>
</svg>