<svg width="28" height="29" fill="none" xmlns="http://www.w3.org/2000/svg">
  <path d="M19.52 11.152L19.52.575c0-.316-.27-.573-.604-.573L.608 0C.274 0 .004.256.004.573L.002 11.149c0 .16.047.317.136.454l2.59 3.953a.548.548 0 010 .604l-2.59 3.953a.826.826 0 00-.137.453L0 27.857c0 .317.27.573.604.573l18.309.003c.334 0 .604-.257.605-.573v-7.291c0-.16.048-.318.137-.454l2.59-3.952a.548.548 0 000-.605l-2.589-3.953a.827.827 0 01-.136-.453z" fill="#C1D5E4"/>
  <path d="M22.246 15.56l-2.59-3.954a.826.826 0 01-.136-.453L19.522.576c0-.316-.271-.572-.605-.572h-1.754v11.149c0 .16.046.317.136.453l2.589 3.954a.548.548 0 010 .604l-2.59 3.952a.826.826 0 00-.137.454v7.863h1.752c.334 0 .605-.256.605-.572V20.57c0-.16.048-.317.137-.454l2.59-3.952a.547.547 0 000-.605z" fill="#98B9D3"/>
  <path d="M10.326 23.095H2.879a.442.442 0 01-.453-.43c0-.237.203-.429.453-.429h7.447c.25 0 .453.192.453.43 0 .237-.203.43-.453.43zM15.835 23.095h-3.212a.442.442 0 01-.453-.43c0-.237.203-.429.453-.429h3.212c.25 0 .453.192.453.43 0 .237-.203.43-.453.43zM10.462 24.985H2.879a.442.442 0 01-.453-.43c0-.236.203-.428.453-.428h7.583c.25 0 .453.192.453.429a.442.442 0 01-.453.429zM15.835 14.06H4.722a.442.442 0 01-.453-.43c0-.237.203-.43.453-.43h11.112c.25 0 .454.193.454.43s-.203.43-.454.43z" fill="#407093"/>
  <path d="M22.337 15.86l-19.518-.002a.55.55 0 01-.091.302l-2.59 3.953a.837.837 0 00-.099.208l19.518.002a.835.835 0 01.098-.208l2.59-3.952a.552.552 0 00.091-.303zM19.52 11.152L19.52.575c0-.316-.27-.573-.604-.573L.608 0C.274 0 .003.256.003.573L.002 11.149c0 .084.013.166.038.245l19.518.003a.818.818 0 01-.038-.245z" fill="#DAE7EF"/>
  <path d="M17.162 11.153c0 .083.013.166.038.245h2.357a.82.82 0 01-.038-.245L19.521.576c0-.316-.27-.573-.605-.573h-1.753l-.001 11.15zM19.979 15.86c0 .105-.03.21-.091.303l-2.59 3.952a.84.84 0 00-.1.208h2.358a.836.836 0 01.099-.208l2.59-3.952a.551.551 0 00.091-.303H19.98z" fill="#C1D5E4"/>
  <path d="M13.764 4.97a1.61 1.61 0 00-.54 1.63c.01.043-.029.08-.073.07a1.816 1.816 0 00-1.72.51 1.605 1.605 0 00-.022 2.193c.477.524 1.21.693 1.85.506.488-.143.99-.232 1.5-.26l.118-.007c.44-.025.881-.006 1.317.056l.142.02c.041.006.076-.027.07-.066l-.021-.135a5.655 5.655 0 01-.059-1.248l.008-.112c.03-.483.125-.959.276-1.42a1.61 1.61 0 00-.532-1.755 1.837 1.837 0 00-2.314.019z" fill="#DD5790"/>
  <path d="M6.565 2.855H2.88a.442.442 0 01-.453-.43c0-.237.203-.43.453-.43h3.686c.25 0 .454.193.454.43s-.203.43-.454.43zM10.326 5.79H2.879a.442.442 0 01-.453-.429c0-.237.203-.43.453-.43h7.447c.25 0 .453.193.453.43s-.203.43-.453.43zM8.81 7.681H2.88a.442.442 0 01-.454-.43c0-.237.203-.429.453-.429H8.81c.25 0 .453.192.453.43 0 .237-.203.429-.453.429zM15.835 18.45h-3.212a.442.442 0 01-.453-.43c0-.238.203-.43.453-.43h3.212c.25 0 .453.193.453.43s-.203.43-.453.43zM10.462 18.45h-5.74a.442.442 0 01-.453-.43c0-.238.203-.43.453-.43h5.74c.25 0 .453.193.453.43s-.203.43-.453.43zM26.2 24.586a.442.442 0 01-.454-.43v-2.32c0-.236.203-.429.454-.429.25 0 .453.193.453.43v2.32c0 .237-.203.429-.453.429z" fill="#407093"/>
  <path d="M22.597 12.277a.442.442 0 01-.453-.43V7.89c0-.714.326-1.39.896-1.857l1.404-1.151a.471.471 0 01.639.044c.164.18.143.45-.046.606l-1.404 1.15c-.37.304-.583.744-.583 1.208v3.958c0 .238-.203.43-.453.43z" fill="#98B9D3"/>
  <path d="M24.819 8.823l-.302.915v10.086c0 .827.201 1.644.589 2.385.448.858 1.74.858 2.188 0 .387-.741.589-1.558.589-2.385V9.738l-.302-.915h-2.762z" fill="#407093"/>
  <path d="M27.58 8.823h-1.348l.303.915v10.086c0 .827-.202 1.644-.59 2.385-.102.196-.25.347-.42.454.575.359 1.422.208 1.768-.454.388-.741.59-1.558.59-2.385V9.738l-.303-.915z" fill="#2B4D66"/>
  <path d="M22.597 12.61c.446 0 .807-.342.807-.764 0-.421-.361-.764-.807-.764-.445 0-.806.342-.806.764s.36.764.806.764z" fill="#C1D5E4"/>
  <path d="M24.516 9.738h3.366V3.936c0-.316-.27-.573-.604-.573H25.12c-.334 0-.605.257-.605.573v5.802z" fill="#DAE7EF"/>
  <path d="M27.278 3.363H25.93c.334 0 .605.257.605.573v5.802h1.348V3.936c0-.316-.271-.573-.605-.573z" fill="#C1D5E4"/>
</svg>