<svg width="61" height="61" viewBox="0 0 61 61" fill="none" xmlns="http://www.w3.org/2000/svg">
<path d="M20.0781 28.9094V15.0894C20.0781 12.4372 21.1317 9.89365 23.0071 8.01829C24.8824 6.14292 27.426 5.08936 30.0781 5.08936C32.7303 5.08936 35.2738 6.14292 37.1492 8.01829C39.0246 9.89365 40.0781 12.4372 40.0781 15.0894V28.9094C42.3424 30.9346 43.9384 33.5996 44.6549 36.5518C45.3714 39.504 45.1747 42.6041 44.0907 45.442C43.0067 48.2799 41.0866 50.7218 38.5845 52.4445C36.0823 54.1673 33.116 55.0897 30.0781 55.0897C27.0403 55.0897 24.074 54.1673 21.5718 52.4445C19.0696 50.7218 17.1495 48.2799 16.0655 45.442C14.9816 42.6041 14.7848 39.504 15.5013 36.5518C16.2178 33.5996 17.8138 30.9346 20.0781 28.9094ZM25.0781 25.9394C26.6843 25.3738 28.3753 25.0863 30.0781 25.0894C31.8306 25.0894 33.5131 25.3894 35.0781 25.9419V15.0894C35.0781 13.7633 34.5513 12.4915 33.6137 11.5538C32.676 10.6161 31.4042 10.0894 30.0781 10.0894C28.752 10.0894 27.4803 10.6161 26.5426 11.5538C25.6049 12.4915 25.0781 13.7633 25.0781 15.0894V25.9419V25.9394ZM30.0781 45.0894C31.4042 45.0894 32.676 44.5626 33.6137 43.6249C34.5513 42.6872 35.0781 41.4154 35.0781 40.0894C35.0781 38.7633 34.5513 37.4915 33.6137 36.5538C32.676 35.6161 31.4042 35.0894 30.0781 35.0894C28.752 35.0894 27.4803 35.6161 26.5426 36.5538C25.6049 37.4915 25.0781 38.7633 25.0781 40.0894C25.0781 41.4154 25.6049 42.6872 26.5426 43.6249C27.4803 44.5626 28.752 45.0894 30.0781 45.0894Z" fill="#C4CFD4"/>
</svg>