<svg width="329" height="329" viewBox="0 0 329 329" fill="none" xmlns="http://www.w3.org/2000/svg">
<g opacity="0.1">
<path d="M109.411 158.405V82.8556C109.411 68.3571 115.171 54.4524 125.423 44.2005C135.675 33.9485 149.58 28.189 164.078 28.189C178.577 28.189 192.481 33.9485 202.733 44.2005C212.985 54.4524 218.745 68.3571 218.745 82.8556V158.405C231.123 169.476 239.848 184.045 243.765 200.184C247.682 216.322 246.606 233.27 240.68 248.784C234.755 264.297 224.258 277.646 210.579 287.064C196.901 296.482 180.685 301.524 164.078 301.524C147.471 301.524 131.255 296.482 117.577 287.064C103.898 277.646 93.4018 264.297 87.476 248.784C81.5502 233.27 80.4747 216.322 84.3916 200.184C88.3085 184.045 97.0333 169.476 109.411 158.405ZM136.745 142.169C145.525 139.077 154.769 137.506 164.078 137.522C173.658 137.522 182.856 139.162 191.411 142.183V82.8556C191.411 75.6064 188.532 68.654 183.406 63.528C178.28 58.402 171.327 55.5223 164.078 55.5223C156.829 55.5223 149.877 58.402 144.751 63.528C139.625 68.654 136.745 75.6064 136.745 82.8556V142.183V142.169ZM164.078 246.856C171.327 246.856 178.28 243.976 183.406 238.85C188.532 233.724 191.411 226.772 191.411 219.522C191.411 212.273 188.532 205.321 183.406 200.195C178.28 195.069 171.327 192.189 164.078 192.189C156.829 192.189 149.877 195.069 144.751 200.195C139.625 205.321 136.745 212.273 136.745 219.522C136.745 226.772 139.625 233.724 144.751 238.85C149.877 243.976 156.829 246.856 164.078 246.856Z" fill="#C4CFD4"/>
</g>
</svg>
