<svg width="30" height="50" viewBox="0 0 30 50" fill="none" xmlns="http://www.w3.org/2000/svg">
<rect width="30" height="50" rx="8" fill="#F2C94C"/>
<path fill-rule="evenodd" clip-rule="evenodd" d="M11.1469 26.7725C11.1933 26.7284 11.2485 26.6934 11.3093 26.6695C11.37 26.6456 11.4351 26.6333 11.5009 26.6333C11.5667 26.6333 11.6318 26.6456 11.6925 26.6695C11.7533 26.6934 11.8084 26.7284 11.8549 26.7725L14.5009 29.2804L17.1469 26.7725C17.2408 26.6835 17.3681 26.6335 17.5009 26.6335C17.6337 26.6335 17.761 26.6835 17.8549 26.7725C17.9488 26.8614 18.0015 26.9821 18.0015 27.1079C18.0015 27.2337 17.9488 27.3543 17.8549 27.4433L14.8549 30.2856C14.8084 30.3297 14.7533 30.3647 14.6925 30.3886C14.6318 30.4125 14.5667 30.4248 14.5009 30.4248C14.4351 30.4248 14.37 30.4125 14.3093 30.3886C14.2485 30.3647 14.1933 30.3297 14.1469 30.2856L11.1469 27.4433C11.1003 27.3993 11.0634 27.347 11.0382 27.2894C11.013 27.2319 11 27.1702 11 27.1079C11 27.0456 11.013 26.9839 11.0382 26.9263C11.0634 26.8688 11.1003 26.8165 11.1469 26.7725Z" fill="white"/>
<path fill-rule="evenodd" clip-rule="evenodd" d="M14.501 20C14.6336 20 14.7608 20.0499 14.8545 20.1388C14.9483 20.2277 15.001 20.3482 15.001 20.4739V29.0037C15.001 29.1293 14.9483 29.2499 14.8545 29.3387C14.7608 29.4276 14.6336 29.4775 14.501 29.4775C14.3684 29.4775 14.2412 29.4276 14.1474 29.3387C14.0537 29.2499 14.001 29.1293 14.001 29.0037V20.4739C14.001 20.3482 14.0537 20.2277 14.1474 20.1388C14.2412 20.0499 14.3684 20 14.501 20Z" fill="white"/>
</svg>
