<svg width="60" height="43" fill="none" xmlns="http://www.w3.org/2000/svg">
  <path d="M46.363 25.513c.667 0 1.307-.096 1.944-.184-.206.658-.419 1.327-.76 1.928-.34.873-.873 1.63-1.402 2.392-.443.825-1.224 1.384-1.798 2.09-.601.686-1.42 1.142-2.07 1.712-.637.595-1.471.893-2.136 1.312-.694.377-1.298.794-1.944.992l-1.612.63-1.418.558 1.45 5.494 1.787-.408c.57-.136 1.268-.295 2.06-.485.811-.142 1.675-.53 2.639-.884.95-.403 2.051-.675 3.075-1.321 1.028-.618 2.216-1.134 3.263-1.962 1.014-.853 2.237-1.593 3.14-2.679.987-1.015 1.963-2.08 2.72-3.294.876-1.157 1.47-2.427 2.1-3.682a30.32 30.32 0 001.399-3.788c.709-2.5 1.026-4.876 1.149-6.908.101-2.035.041-3.728-.084-4.953a20.56 20.56 0 00-.189-1.527l-.075-.477-.077.017c-.532-2.355-1.757-4.52-3.533-6.242A13.663 13.663 0 0049.49.349a14.169 14.169 0 00-7.466.332c-2.406.776-4.53 2.182-6.129 4.055a12.42 12.42 0 00-2.9 6.529 12.17 12.17 0 001.22 6.988c1.096 2.174 2.818 4.01 4.967 5.294a14.01 14.01 0 007.18 1.966zm-32.902 0c.667 0 1.307-.096 1.944-.184-.206.658-.419 1.327-.76 1.928-.34.873-.873 1.63-1.402 2.392-.443.825-1.224 1.384-1.798 2.09-.601.686-1.42 1.142-2.07 1.712-.637.595-1.472.893-2.136 1.312-.694.377-1.298.794-1.944.992l-1.612.63-1.418.558 1.45 5.494 1.787-.408c.57-.136 1.268-.295 2.06-.485.811-.142 1.675-.53 2.638-.884.949-.406 2.052-.675 3.075-1.324 1.03-.618 2.217-1.134 3.264-1.962 1.014-.853 2.237-1.593 3.14-2.676.987-1.015 1.963-2.08 2.72-3.294.876-1.157 1.47-2.427 2.099-3.682a30.32 30.32 0 001.4-3.788c.709-2.5 1.026-4.876 1.148-6.908.102-2.035.042-3.728-.083-4.953a20.607 20.607 0 00-.189-1.527l-.075-.477-.077.017c-.532-2.355-1.757-4.52-3.533-6.242A13.662 13.662 0 0016.588.349 14.169 14.169 0 009.12.681c-2.405.776-4.53 2.182-6.128 4.055a12.42 12.42 0 00-2.9 6.529 12.17 12.17 0 001.22 6.988c1.096 2.174 2.818 4.01 4.967 5.294a14.01 14.01 0 007.18 1.966z" fill="#F2C94C"/>
</svg>