<svg width="15" height="15" viewBox="0 0 15 15" fill="none" xmlns="http://www.w3.org/2000/svg">
<path d="M5.65527 11.281L9.22603 5.13202C9.22603 5.13202 11.2597 5.25959 9.57519 7.66757C7.89069 10.0756 5.65527 11.281 5.65527 11.281Z" fill="#F2C94C"/>
<path d="M4.54137 5.13204L9.01071 5.13204C9.01071 5.13204 8.45766 6.09044 8.32793 6.29662C7.48226 7.59905 5.49579 6.94303 4.54137 6.0243C3.58695 5.10558 4.54137 5.13204 4.54137 5.13204Z" fill="#F2C94C"/>
<path d="M15 7.5C15 11.6421 11.6421 15 7.5 15C3.35786 15 0 11.6421 0 7.5C0 3.35786 3.35786 0 7.5 0C11.6421 0 15 3.35786 15 7.5ZM0.930675 7.5C0.930675 11.1281 3.87186 14.0693 7.5 14.0693C11.1281 14.0693 14.0693 11.1281 14.0693 7.5C14.0693 3.87186 11.1281 0.930675 7.5 0.930675C3.87186 0.930675 0.930675 3.87186 0.930675 7.5Z" fill="#F2C94C"/>
</svg>
