<svg width="24" height="24" fill="none" xmlns="http://www.w3.org/2000/svg">
  <g clip-path="url(#clip0)">
    <path d="M22.675 24c.732 0 1.325-.593 1.325-1.325V1.325C24 .593 23.407 0 22.675 0H1.325C.593 0 0 .593 0 1.325v21.35C0 23.407.593 24 1.325 24h21.35" fill="#395185"/>
    <path d="M16.56 24v-9.294h3.12l.466-3.622H16.56V8.771c0-1.048.291-1.763 1.795-1.763h1.918v-3.24c-.332-.044-1.47-.143-2.795-.143-2.766 0-4.659 1.688-4.659 4.788v2.671H9.692v3.622h3.127V24h3.74z" fill="#fff"/>
  </g>
  <defs>
    <clipPath id="clip0">
      <path fill="#fff" d="M0 0h24v24H0z"/>
    </clipPath>
  </defs>
</svg>