<svg width="20" height="18" fill="none" xmlns="http://www.w3.org/2000/svg">
  <path d="M10 0c2.717 0 3.056.009 4.122.054 1.065.045 1.79.195 2.428.418.66.23 1.216.539 1.772 1.038.509.45.902.994 1.153 1.595.247.573.415 1.227.465 2.185.047.96.06 1.265.06 3.71 0 2.445-.01 2.75-.06 3.71-.05.958-.218 1.61-.465 2.185a4.38 4.38 0 01-1.153 1.595c-.5.457-1.105.811-1.772 1.037-.637.223-1.363.374-2.428.419-1.066.042-1.405.054-4.122.054-2.717 0-3.056-.01-4.122-.054-1.065-.045-1.79-.196-2.428-.419a4.972 4.972 0 01-1.772-1.037 4.398 4.398 0 01-1.153-1.595C.277 14.322.11 13.668.06 12.71.013 11.75 0 11.445 0 9c0-2.445.01-2.75.06-3.71.05-.96.217-1.61.465-2.185A4.377 4.377 0 011.678 1.51 4.98 4.98 0 013.45.472C4.088.25 4.812.1 5.878.054 6.944.012 7.283 0 10 0zm0 4.5c-1.326 0-2.598.474-3.536 1.318C5.527 6.662 5 7.807 5 9c0 1.193.527 2.338 1.464 3.182.938.844 2.21 1.318 3.536 1.318s2.598-.474 3.536-1.318C14.473 11.338 15 10.193 15 9c0-1.194-.527-2.338-1.464-3.182C12.598 4.974 11.326 4.5 10 4.5zm6.5-.225c0-.298-.132-.585-.366-.796a1.324 1.324 0 00-.884-.329c-.332 0-.65.119-.884.33a1.071 1.071 0 00-.366.795c0 .298.132.584.366.795.235.211.553.33.884.33.332 0 .65-.119.884-.33.234-.21.366-.497.366-.795zM10 6.3c.796 0 1.559.284 2.121.79.563.507.879 1.194.879 1.91s-.316 1.403-.879 1.91A3.178 3.178 0 0110 11.7a3.177 3.177 0 01-2.121-.79C7.316 10.402 7 9.715 7 9s.316-1.403.879-1.91A3.177 3.177 0 0110 6.3z" fill="#D53F90"/>
</svg>