<svg width="38" height="36" fill="none" xmlns="http://www.w3.org/2000/svg">
  <g clip-path="url(#clip0)">
    <path d="M36.475 15.916a12.31 12.31 0 01-3.623-.559 6.173 6.173 0 003.862-2.003 12.324 12.324 0 01-4.178-.232 6.148 6.148 0 00-3.307-3.61 6.155 6.155 0 00-8.56 4.45 17.474 17.474 0 01-8.953-11.051 6.127 6.127 0 00-2.024 2.484 6.152 6.152 0 00.407 5.795 6.13 6.13 0 01-2.23-1.842l-.032.07a6.159 6.159 0 002.041 7.526 6.164 6.164 0 01-2.58-1.039 6.161 6.161 0 003.502 6.25 12.35 12.35 0 01-8.053-.717c-.453-.203-.889-.43-1.305-.678a17.42 17.42 0 007.483 6.377c10.334 4.624 19.815-1.408 23.137-8.832.108-.244.212-.489.309-.735a12.51 12.51 0 004.104-1.654z" fill="#55ACEE"/>
  </g>
  <defs>
    <clipPath id="clip0">
      <path fill="#fff" transform="rotate(24.105 2.95 24.613)" d="M0 0h30v24.492H0z"/>
    </clipPath>
  </defs>
</svg>